<?xml version="1.0" encoding="UTF-8"?>
<!-- Created with Inkscape (http://www.inkscape.org/) -->
<svg width="118.72675mm" height="131.54805mm" version="1.1" viewBox="0 0 118.72675 131.54805" xmlns="http://www.w3.org/2000/svg" xmlns:cc="http://creativecommons.org/ns#" xmlns:dc="http://purl.org/dc/elements/1.1/" xmlns:rdf="http://www.w3.org/1999/02/22-rdf-syntax-ns#" xmlns:xlink="http://www.w3.org/1999/xlink">
 <defs>
  <linearGradient id="linearGradient339">
   <stop stop-color="#00c9fd" offset="0"/>
   <stop stop-color="#81ee8e" offset="1"/>
  </linearGradient>
  <linearGradient id="linearGradient1907" x1="-181.42857" x2="300.86905" y1="126.91071" y2="126.91071" gradientUnits="userSpaceOnUse" xlink:href="#linearGradient339"/>
  <linearGradient id="linearGradient2283" x1="71.457397" x2="105.56015" y1="127.40305" y2="127.40305" gradientTransform="matrix(.89329041 0 0 .89329041 7.7967293 14.275642)" gradientUnits="userSpaceOnUse">
   <stop stop-color="#ae3ba4" offset="0"/>
   <stop stop-color="#ed0a04" offset="1"/>
  </linearGradient>
  <linearGradient id="linearGradient118" x1="328" x2="502.7529" y1="395.51968" y2="402.68497" gradientTransform="scale(.26458333)" gradientUnits="userSpaceOnUse" xlink:href="#linearGradient339"/>
 </defs>
 <metadata>
  <rdf:RDF>
   <cc:Work rdf:about="">
    <dc:format>image/svg+xml</dc:format>
    <dc:type rdf:resource="http://purl.org/dc/dcmitype/StillImage"/>
    <dc:title/>
   </cc:Work>
  </rdf:RDF>
 </metadata>
 <g transform="translate(-1.112819,-61.892644)">
  <g transform="translate(-59.311259,28.41717)">
   <rect transform="matrix(.77503181 .63192223 -.12080305 .99267649 0 0)" x="96.748657" y="39.049938" width="42.47525" height="31.425014" fill="#fff"/>
   <flowRoot fill="url(#linearGradient1907)" font-family="sans-serif" font-size="192px" letter-spacing="0px" word-spacing="0px" style="line-height:1.25" xml:space="preserve"><flowRegion font-size="192px"><rect x="-1329.3607" y="863.92065" width="3014.2952" height="383.85797" fill="url(#linearGradient1907)"/></flowRegion><flowPara/></flowRoot>
   <flowRoot fill="url(#linearGradient1907)" font-family="sans-serif" font-size="40px" letter-spacing="0px" word-spacing="0px" style="line-height:1.25" xml:space="preserve"><flowRegion><rect x="-1333.4014" y="835.63635" width="3082.9856" height="347.49246" fill="url(#linearGradient1907)"/></flowRegion><flowPara/></flowRoot>
   <circle cx="135.73367" cy="117.66933" r="21.922617" fill="#fff" stroke-width=".24751343"/>
   <circle cx="82.346695" cy="129.10443" r="21.922617" fill="#fff" stroke-width=".24751343"/>
   <path d="m86.924408 33.475474v78.291346h0.614434a46.113099 46.113099 0 0 0-0.614434 7.14375 46.113099 46.113099 0 0 0 46.112952 46.11295 46.113099 46.113099 0 0 0 46.11346-46.11295 46.113099 46.113099 0 0 0-46.11346-46.112949 46.113099 46.113099 0 0 0-21.35529 5.268413v-44.59056z" fill="url(#linearGradient118)" stroke-width=".26458332"/>
   <circle cx="132.82967" cy="118.77834" r="21.922619" fill="#fff" stroke-width=".24751343"/>
   <circle cx="86.697838" cy="127.90675" r="21.061882" fill="#fff"/>
   <circle cx="86.860756" cy="128.0835" r="15.231829" fill="url(#linearGradient2283)"/>
  </g>
 </g>
</svg>
