<svg xmlns="http://www.w3.org/2000/svg" viewBox="0 0 200 200"><defs><style>.cls-1,.cls-2{fill:none;stroke:#231f20;stroke-width:5px;}.cls-1{stroke-miterlimit:10;}.cls-2{stroke-linecap:round;stroke-linejoin:round;}</style></defs><title>usẻr</title><g id="Layer_1" data-name="Layer 1"><circle class="cls-1" cx="100.62" cy="99.99" r="96.99"/><path class="cls-2" d="M129.25,79.95c0,20.38-15.53,36.9-28.63,36.9C89.46,116.85,72,100.33,72,79.95s12.82-30.52,28.63-30.52S129.25,59.57,129.25,79.95Z"/><path class="cls-2" d="M117.09,115.2A88.67,88.67,0,0,1,100.62,131,88.68,88.68,0,0,1,84.15,115.2c-18.32,8.31-31.4,27.29-31.4,27.29a150.94,150.94,0,0,0,47.87,8.07,150.94,150.94,0,0,0,47.87-8.07S135.41,123.51,117.09,115.2Z"/></g></svg>